<svg xmlns="http://www.w3.org/2000/svg" width="32" height="32" viewBox="0 0 32 32">
  <defs>
    <linearGradient id="bcg" x1="0" y1="0" x2="1" y2="1">
      <stop offset="0%" stop-color="#10b981"/>
      <stop offset="100%" stop-color="#22d3ee"/>
    </linearGradient>
  </defs>
  <rect width="32" height="32" rx="6" fill="url(#bcg)"/>
  <path d="M9.2 8.5h6.2c2.8 0 4.6 1.55 4.6 3.82 0 1.38-.66 2.42-1.78 3 1.58.5 2.5 1.72 2.5 3.3 0 2.44-1.78 3.7-4.66 3.7H9.2V8.5zm2.58 5.78h3.6c1.4 0 2.2-.65 2.2-1.8 0-1.15-.8-1.78-2.2-1.78h-3.6v3.58zm0 5.86h3.92c1.5 0 2.4-.7 2.4-1.9 0-1.2-.9-1.9-2.4-1.9h-3.92v3.8z" fill="#04120d"/>
</svg>
